<svg version="1" xmlns="http://www.w3.org/2000/svg" width="346.667" height="346.667" viewBox="0 0 260.000000 260.000000"><path d="M63.6 80.5C49.8 84 36.2 93.9 29.2 105.7c-12.6 21.1-9 49.4 8.5 66.9 15.2 15.2 37.4 20 58.8 12.8l4.5-1.6v-32l-3.6 3.2c-13.1 11.4-32.6 9.4-42-4.3-4.4-6.3-5.7-11.7-5.1-19.7 1.1-14.8 12.3-25.2 27.2-25.3 8-.1 13.9 2.1 19.8 7.3l3.7 3.2V84.1L94.3 82c-8.9-2.8-22.8-3.5-30.7-1.5zM124.6 86.7c-.4 2.7-1 5.9-1.2 7.3-.6 3.4-3.4 19.9-3.9 23-.2 1.4-1.3 8.1-2.5 15s-2.3 13.8-2.6 15.5c-.2 1.6-1.1 6.6-1.9 11-.8 4.4-1.7 9.6-2 11.5-.3 1.9-1 5.9-1.5 8.9-.6 3-1 5.8-1 6.3 0 .4 6.1.8 13.5.8 12.2 0 13.5-.2 13.6-1.8 0-.9.2-2.6.4-3.7.3-1.1.7-4.5 1.1-7.5.3-3 .8-5.7.9-6 .2-.3.6-2.9 1-5.9.4-3 .9-6.3 1.1-7.5.2-1.2.7-4.1 1-6.6.3-2.5.7-5.2.9-6 .2-.8.7-4.2 1.1-7.5.3-3.3.7-6.1.9-6.3.1-.1 1.5 2.8 3 6.5s3.1 7.7 3.6 8.8c.4 1.1 4.4 11.2 8.8 22.5l8 20.5 5.4.3c3.8.2 5.6-.1 6-1 .7-1.9 19.6-47.9 20.6-50.3.5-1.1 1.4-3.3 2-4.9 1.4-3.5 1.7-3.3 2.4 2.4.3 2.5 1.8 12.4 3.2 22 1.5 9.6 2.8 18.4 2.9 19.5.2 1.1.6 4.4 1 7.2l.8 5.3h13.4c7.4 0 13.4-.3 13.4-.8 0-.4-.5-3.4-1-6.7-.6-3.3-1.3-7.6-1.6-9.5-.2-1.9-.7-4.6-1-6-.2-1.4-.7-3.7-.9-5.3-.3-1.5-.7-3.9-1-5.5-.2-1.5-.7-3.8-.9-5.2-.3-1.4-.7-4.1-1-6-.4-2.9-4.5-26.6-6.2-36-.2-1.4-1.1-7.1-2-12.8l-1.7-10.3-13.6.3-13.6.3-9.9 26.7c-5.4 14.8-10.2 26.8-10.5 26.8-.5 0-16.6-41.8-19.5-50.8l-1.1-3.2h-27.2l-.7 4.7z"/></svg>